<?xml version="1.0" encoding="UTF-8"?>
<svg version="1.1" xmlns="http://www.w3.org/2000/svg" width="320" height="320">
<path d="M0,0 L320,0 L320,320 L0,320 Z " fill="#513C32" transform="translate(0,0)"/>
<path d="M0,0 L28,0 L28,320 L-113,320 L-110,313 L-115,310 L-119,309 L-119,307 L-123,305 L-118,301 L-113,302 L-114,305 L-109,306 L-107,301 L-101,300 L-103,295 L-104,290 L-105,288 L-102,286 L-99,285 L-97,281 L-99,280 L-99,278 L-104,276 L-102,274 L-98,275 L-99,271 L-101,270 L-98,268 L-98,258 L-100,253 L-98,253 L-98,250 L-101,249 L-103,244 L-107,243 L-107,241 L-110,240 L-111,237 L-113,236 L-113,234 L-115,234 L-116,229 L-114,229 L-114,227 L-116,227 L-117,223 L-116,220 L-117,214 L-119,214 L-120,216 L-122,216 L-121,212 L-118,213 L-118,210 L-120,209 L-118,208 L-117,205 L-119,205 L-121,201 L-124,199 L-121,198 L-123,192 L-122,188 L-121,184 L-119,183 L-121,178 L-120,175 L-124,173 L-124,172 L-133,169 L-134,171 L-135,168 L-141,167 L-142,164 L-147,162 L-148,164 L-152,163 L-166,162 L-179,165 L-186,169 L-188,172 L-187,177 L-185,178 L-180,178 L-175,177 L-175,179 L-173,179 L-172,177 L-168,178 L-166,182 L-164,184 L-173,185 L-174,190 L-180,189 L-188,193 L-190,193 L-190,195 L-192,195 L-192,197 L-194,197 L-194,204 L-191,204 L-191,206 L-192,207 L-186,206 L-186,208 L-181,207 L-181,205 L-172,204 L-174,206 L-176,211 L-179,214 L-181,214 L-182,218 L-186,217 L-188,211 L-193,212 L-192,210 L-196,212 L-192,214 L-192,219 L-196,221 L-197,225 L-200,212 L-211,189 L-216,180 L-218,174 L-218,168 L-217,167 L-208,168 L-214,161 L-217,158 L-222,157 L-223,155 L-225,155 L-227,175 L-229,175 L-237,253 L-238,253 L-238,240 L-232,181 L-229,156 L-229,150 L-234,145 L-238,138 L-239,135 L-239,128 L-223,120 L-219,118 L-210,116 L-201,113 L-190,111 L-179,109 L-162,108 L-90,108 L-67,111 L-41,115 L-25,118 L-18,121 L-12,125 L-9,130 L-11,125 L-12,122 L-16,120 L-18,119 L-18,117 L-22,117 L-22,101 L-21,100 L-20,92 L-19,91 L-16,74 L-13,63 L-12,54 L-11,53 L-10,45 L-8,39 L-7,28 L-5,28 L-4,19 Z M-113,310 Z " fill="#7B736B" transform="translate(292,0)"/>
<path d="M0,0 L211,0 L210,9 L206,28 L204,28 L204,39 L202,45 L201,53 L200,54 L198,66 L194,83 L193,91 L192,92 L191,100 L190,101 L189,117 L193,117 L193,119 L197,121 L202,126 L203,128 L203,136 L202,136 L200,128 L199,125 L194,123 L189,120 L176,117 L153,113 L126,110 L121,109 L28,109 L24,110 L17,110 L17,112 L5,114 L0,116 L-5,115 L-3,108 L-4,106 L-2,97 L-3,95 L-1,89 L0,84 L10,84 L13,79 L13,76 L11,74 L14,71 L11,65 L10,59 L8,60 L7,63 L3,64 L1,69 L-6,86 L-7,86 L-6,61 L-1,14 Z " fill="#C4A37F" transform="translate(81,0)"/>
<path d="M0,0 L6,0 L6,320 L-28,320 L-43,313 L-53,311 L-69,305 L-69,308 L-71,308 L-73,304 L-66,303 L-57,260 L-48,217 L-39,175 L-34,154 L-33,147 L-31,147 L-28,125 L-20,89 L-10,45 L-1,6 Z " fill="#7B898C" transform="translate(314,0)"/>
<path d="M0,0 L19,0 L19,14 L14,61 L13,84 L20,67 L24,63 L26,63 L27,59 L30,59 L32,67 L35,72 L34,74 L31,74 L33,76 L32,81 L29,85 L19,85 L19,91 L17,96 L18,100 L16,107 L17,110 L15,114 L19,115 L28,112 L36,112 L36,110 L47,108 L68,108 L68,109 L51,110 L37,113 L26,115 L18,118 L9,120 L-7,128 L-9,128 L-7,138 L-2,147 L2,150 L1,162 L-5,219 L-7,244 L0,175 L1,170 L3,166 L4,155 L8,155 L8,157 L13,157 L14,160 L18,162 L23,168 L20,169 L13,168 L14,177 L18,186 L26,202 L32,214 L34,230 L37,239 L42,242 L42,245 L42,250 L46,255 L46,280 L41,287 L34,293 L25,297 L21,299 L22,302 L3,312 L0,314 L-11,314 L-27,312 L-28,314 L-28,301 L-24,265 L-18,200 L-16,179 L-12,143 L-9,104 L-3,37 Z " fill="#4C5E61" transform="translate(62,0)"/>
<path d="M0,0 L51,0 L68,2 L110,11 L116,16 L116,27 L116,30 L111,32 L107,27 L107,23 L103,23 L95,21 L93,25 L88,25 L87,26 L90,26 L91,29 L78,27 L71,26 L74,31 L82,35 L85,38 L79,40 L78,39 L77,42 L79,43 L70,45 L69,48 L79,51 L82,55 L80,60 L72,60 L70,56 L66,54 L66,61 L61,65 L65,67 L63,71 L66,72 L67,77 L67,84 L68,87 L67,89 L65,89 L65,94 L61,93 L61,91 L63,90 L54,88 L51,87 L51,83 L53,82 L51,78 L59,79 L57,77 L58,72 L47,69 L39,66 L35,64 L34,56 L35,49 L25,49 L25,51 L22,53 L22,62 L19,61 L10,58 L9,60 L8,57 L2,56 L1,53 L-4,51 L-5,53 L-9,52 L-23,51 L-36,54 L-43,58 L-45,61 L-44,66 L-42,67 L-37,67 L-32,66 L-32,68 L-30,68 L-29,66 L-25,67 L-23,71 L-21,73 L-30,74 L-31,79 L-37,78 L-45,82 L-47,82 L-47,84 L-49,84 L-49,86 L-51,86 L-51,93 L-48,93 L-48,95 L-49,96 L-43,95 L-43,97 L-38,96 L-38,94 L-29,93 L-31,95 L-33,100 L-36,103 L-38,103 L-39,107 L-43,106 L-45,100 L-50,101 L-49,99 L-53,101 L-49,103 L-49,108 L-53,110 L-54,114 L-57,101 L-68,78 L-73,69 L-75,63 L-75,57 L-74,56 L-65,57 L-71,50 L-76,45 L-79,41 L-80,28 L-84,25 L-88,24 L-88,20 L-82,17 L-77,13 L-63,8 L-49,4 L-28,2 Z " fill="#6F4A3D" transform="translate(149,111)"/>
<path d="M0,0 L211,0 L210,9 L206,28 L204,28 L204,39 L202,45 L201,53 L200,54 L198,66 L194,83 L193,91 L192,92 L191,100 L190,101 L189,117 L193,117 L193,119 L197,121 L202,126 L203,128 L203,136 L202,136 L200,128 L199,125 L194,123 L189,120 L176,117 L164,115 L155,112 L140,110 L140,109 L146,109 L143,82 L144,72 L146,74 L147,73 L148,60 L147,59 L146,44 L144,31 L142,22 L133,19 L130,14 L117,8 L103,4 L97,3 L78,3 L57,8 L53,9 L41,9 L34,10 L34,13 L43,13 L42,16 L32,16 L32,20 L37,20 L37,23 L39,24 L28,33 L19,43 L8,57 L1,69 L-6,86 L-7,86 L-6,61 L-1,14 Z " fill="#CCBDA6" transform="translate(81,0)"/>
<path d="M0,0 L41,0 L39,36 L36,75 L35,80 L30,148 L28,169 L27,174 L21,244 L19,262 L18,279 L16,295 L0,294 Z " fill="#CECEAB" transform="translate(0,0)"/>
<path d="M0,0 L21,0 L21,14 L17,57 L13,104 L10,143 L6,179 L3,213 L-5,294 L-6,301 L-6,312 L4,312 L10,313 L21,313 L33,306 L41,302 L42,299 L40,298 L47,297 L51,299 L50,302 L52,302 L54,307 L51,307 L51,309 L55,310 L55,316 L56,312 L62,310 L62,313 L64,313 L61,308 L58,308 L56,310 L54,304 L54,296 L58,297 L58,292 L60,292 L62,301 L68,317 L68,320 L-41,320 L-41,294 L-30,294 L-25,295 L-25,283 L-24,279 L-22,254 L-19,223 L-15,174 L-13,156 L-11,134 L-7,80 L-6,75 L-1,5 Z " fill="#2A2C2E" transform="translate(41,0)"/>
<path d="M0,0 L19,0 L19,14 L14,61 L13,84 L20,67 L24,63 L26,63 L27,59 L30,59 L32,67 L35,72 L34,74 L31,74 L33,76 L32,81 L29,85 L19,85 L19,91 L17,96 L18,100 L16,107 L17,110 L15,114 L19,115 L28,112 L36,112 L36,110 L47,108 L68,108 L68,109 L51,110 L37,113 L26,115 L18,118 L9,120 L-7,128 L-9,128 L-7,138 L-2,147 L2,150 L1,162 L-5,219 L-8,253 L-11,272 L-13,296 L-17,297 L-18,295 L-23,294 L-24,292 L-23,289 L-25,289 L-25,273 L-19,213 L-16,179 L-12,143 L-9,104 L-3,37 Z " fill="#909088" transform="translate(62,0)"/>
<path d="M0,0 L51,0 L68,2 L110,11 L116,16 L116,27 L116,30 L111,32 L107,27 L107,23 L103,23 L95,21 L93,25 L88,25 L87,26 L90,26 L91,29 L82,27 L64,22 L55,20 L15,20 L9,19 L7,21 L2,20 L-2,22 L-8,22 L-4,19 L-18,20 L-20,23 L-29,22 L-32,23 L-42,25 L-52,29 L-54,31 L-55,37 L-55,45 L-57,50 L-57,62 L-60,69 L-61,72 L-56,91 L-56,97 L-59,97 L-68,78 L-73,69 L-75,63 L-75,57 L-74,56 L-65,57 L-71,50 L-76,45 L-79,41 L-80,28 L-84,25 L-88,24 L-88,20 L-82,17 L-77,13 L-63,8 L-49,4 L-28,2 Z M-16,18 Z " fill="#2A2726" transform="translate(149,111)"/>
<path d="M0,0 L6,0 L6,147 L1,149 L-7,149 L-8,151 L-17,152 L-17,145 L-14,145 L-15,143 L-21,144 L-25,143 L-25,147 L-19,146 L-18,152 L-24,153 L-24,155 L-3,151 L5,149 L5,156 L0,158 L-8,160 L-12,160 L-12,162 L0,159 L4,159 L5,165 L-2,167 L-8,169 L-14,169 L-19,168 L-26,168 L-26,165 L-17,163 L-13,163 L-13,160 L-29,161 L-32,175 L-28,175 L-28,179 L-25,179 L-25,181 L-20,181 L-21,183 L-27,184 L-27,181 L-34,180 L-34,183 L-36,183 L-35,176 L-38,175 L-37,166 L-34,154 L-33,147 L-31,147 L-28,125 L-20,89 L-10,45 L-1,6 Z " fill="#97A1A0" transform="translate(314,0)"/>
<path d="M0,0 L1,4 L-4,27 L-13,70 L-21,106 L-29,146 L-33,164 L-36,165 L-40,166 L-39,169 L-37,169 L-37,166 L-27,169 L-19,172 L-8,174 L4,180 L4,181 L-55,181 L-55,171 L-53,172 L-53,175 L-51,175 L-50,168 L-54,161 L-59,157 L-60,154 L-55,156 L-50,158 L-50,151 L-59,150 L-59,147 L-59,146 L-65,154 L-66,152 L-63,145 L-61,137 L-58,131 L-51,123 L-45,111 L-44,115 L-50,128 L-54,138 L-48,127 L-46,127 L-46,121 L-45,119 L-43,119 L-42,114 L-38,89 L-35,80 L-32,68 L-27,57 L-19,44 L-16,35 L-16,29 L-19,27 L-20,30 L-24,29 L-28,28 L-29,26 L-29,16 L-28,10 L-26,12 L-25,10 L-21,10 L-21,12 L-12,7 L-2,2 L0,2 Z " fill="#242627" transform="translate(282,139)"/>
<path d="M0,0 L5,0 L3,4 L5,10 L2,11 L2,14 L2,19 L2,22 L2,24 L0,25 L4,29 L4,31 L6,31 L5,39 L2,40 L6,40 L8,46 L7,53 L9,53 L8,60 L10,60 L10,62 L13,63 L14,66 L21,70 L21,72 L23,74 L26,75 L24,80 L26,84 L26,95 L25,96 L26,99 L25,101 L20,101 L25,103 L24,106 L27,107 L24,112 L22,112 L21,114 L19,115 L21,119 L21,121 L22,126 L18,121 L13,120 L7,121 L7,123 L0,121 L0,119 L-3,118 L-4,114 L-4,111 L-7,108 L-11,107 L-11,105 L-5,105 L-4,106 L-1,102 L-6,99 L-9,99 L-10,93 L-3,90 L-7,89 L-10,87 L-9,84 L-4,87 L-4,85 L-6,84 L-10,82 L-8,81 L-6,75 L-3,74 L-5,69 L-5,64 L-7,64 L-9,60 L-12,59 L-13,64 L-18,63 L-16,65 L-13,67 L-13,69 L-6,69 L-7,73 L-16,70 L-17,68 L-23,69 L-26,68 L-25,63 L-25,60 L-25,58 L-29,58 L-28,54 L-21,56 L-19,57 L-16,54 L-14,55 L-16,53 L-31,53 L-34,50 L-28,50 L-26,40 L-26,36 L-22,35 L-22,33 L-27,31 L-25,25 L-26,20 L-24,22 L-12,17 L-7,18 L-6,14 L-2,13 L-4,10 L-9,8 L-12,11 L-14,11 L-14,13 L-24,17 L-35,20 L-40,20 L-38,22 L-38,25 L-44,26 L-45,28 L-45,25 L-43,25 L-46,22 L-48,21 L-49,24 L-53,27 L-58,26 L-59,20 L-57,20 L-56,18 L-53,18 L-41,15 L-39,14 L-32,13 L-23,10 L-15,8 L-11,6 L-8,6 L-7,4 L-1,3 Z M-18,51 Z " fill="#594C45" transform="translate(169,174)"/>
<path d="M0,0 L3,0 L3,101 L-31,101 L-33,99 L-27,100 L-28,93 L-44,88 L-53,83 L-53,79 L-42,82 L-27,87 L-28,84 L-44,79 L-44,74 L-38,75 L-37,79 L-27,82 L-28,75 L-40,71 L-45,70 L-54,67 L-54,62 L-43,64 L-37,67 L-37,69 L-30,68 L-28,69 L-28,54 L-16,51 L-16,49 L-19,48 L-20,51 L-22,51 L-21,47 L-24,48 L-26,51 L-28,49 L-29,44 L-40,41 L-50,38 L-50,33 L-41,34 L-28,37 L-28,29 L-16,27 L-16,24 L-11,23 L-11,21 L-20,21 L-23,23 L-33,24 L-38,23 L-38,21 L-42,21 L-42,19 L-29,19 L-19,16 L-18,14 L-26,14 L-28,10 L-23,8 L-12,5 L-9,6 L-10,13 L-6,11 L-8,10 L-8,3 Z " fill="#8DA4A6" transform="translate(317,219)"/>
<path d="M0,0 L52,0 L51,9 L47,28 L45,28 L45,39 L43,45 L42,53 L41,54 L39,66 L35,82 L22,82 L18,70 L13,61 L11,57 L3,45 L-5,36 L-5,28 L-9,27 L-9,25 L-5,24 L-4,13 L-1,7 L1,7 Z " fill="#E7EEED" transform="translate(240,0)"/>
<path d="M0,0 L41,0 L39,36 L36,75 L34,81 L25,82 L13,82 L9,81 L0,82 Z " fill="#FEFEFE" transform="translate(0,0)"/>
<path d="M0,0 L9,3 L10,4 L11,27 L13,31 L12,42 L9,56 L12,54 L15,36 L17,35 L16,47 L23,37 L26,25 L24,25 L23,20 L28,23 L27,33 L22,43 L16,52 L12,62 L8,76 L6,83 L4,97 L0,98 L-1,104 L-2,104 L-3,91 L-1,84 L0,80 L-5,80 L-7,85 L-10,88 L-15,93 L-19,93 L-21,98 L-27,101 L-29,101 L-29,104 L-37,109 L-38,114 L-35,111 L-33,111 L-33,109 L-31,109 L-31,114 L-29,113 L-29,116 L-27,117 L-30,117 L-30,123 L-28,123 L-27,120 L-25,121 L-32,130 L-34,134 L-36,134 L-38,139 L-43,148 L-45,149 L-42,140 L-37,131 L-35,128 L-40,123 L-43,122 L-43,113 L-39,103 L-41,103 L-41,97 L-40,95 L-44,96 L-42,96 L-43,98 L-53,95 L-56,93 L-58,88 L-57,85 L-60,86 L-61,80 L-65,54 L-64,49 L-63,46 L-63,43 L-59,44 L-55,44 L-56,46 L-47,47 L-45,49 L-45,51 L-45,54 L-53,53 L-48,58 L-45,58 L-44,62 L-44,64 L-42,69 L-39,69 L-38,77 L-3,76 L-3,74 L-6,73 L-5,72 L-6,62 L-9,59 L-3,60 L-3,58 L2,58 L1,49 L-1,52 L-3,45 L-8,43 L-4,42 L0,43 L0,22 L-4,21 L-4,12 L-6,11 L-4,11 L-3,4 L-2,1 Z " fill="#A49C96" transform="translate(239,145)"/>
<path d="M0,0 L22,0 L21,9 L13,45 L-3,116 L-7,134 L-8,134 L-10,126 L-12,122 L-16,120 L-18,119 L-18,117 L-22,117 L-22,101 L-21,100 L-20,92 L-19,91 L-16,74 L-13,63 L-12,54 L-11,53 L-10,45 L-8,39 L-7,28 L-5,28 L-4,19 Z " fill="#262A2D" transform="translate(292,0)"/>
<path d="M0,0 L1,0 L1,14 L-5,80 L-7,105 L-9,121 L-25,120 L-25,4 L-12,4 L-10,9 L-6,10 L-5,8 L-1,9 L-2,3 Z " fill="#909DA8" transform="translate(25,174)"/>
<path d="M0,0 L72,0 L95,3 L121,7 L137,10 L144,13 L150,17 L153,22 L155,26 L154,37 L152,39 L152,33 L136,41 L134,43 L131,43 L131,41 L127,43 L124,47 L124,59 L133,60 L133,62 L135,62 L133,74 L126,84 L124,86 L125,73 L122,91 L118,93 L118,86 L121,74 L119,64 L119,40 L114,36 L104,32 L107,31 L109,31 L109,29 L106,29 L107,27 L112,27 L114,23 L122,25 L124,24 L124,26 L126,26 L129,33 L133,33 L135,31 L134,29 L134,19 L129,15 L87,6 L70,4 L19,4 L-23,7 L-35,9 L-44,12 L-58,17 L-66,23 L-69,23 L-69,27 L-64,28 L-60,31 L-59,44 L-56,49 L-60,49 L-61,47 L-63,47 L-65,67 L-67,67 L-75,145 L-76,145 L-76,132 L-70,73 L-67,48 L-67,42 L-72,37 L-76,30 L-77,27 L-77,20 L-61,12 L-57,10 L-48,8 L-39,5 L-28,3 L-17,1 Z " fill="#766B5F" transform="translate(130,108)"/>
<path d="M0,0 L2,1 L1,5 L-1,12 L0,23 L1,19 L4,19 L3,29 L1,34 L-1,34 L-1,43 L-4,43 L-11,56 L-12,54 L-3,34 L-2,30 L-8,41 L-14,47 L-17,54 L-19,62 L-21,68 L-14,58 L-13,60 L-15,64 L-6,66 L-6,73 L-12,71 L-15,70 L-15,72 L-12,73 L-12,75 L-9,76 L-5,83 L-5,89 L-9,90 L-10,87 L-11,96 L-52,96 L-46,89 L-41,85 L-37,80 L-31,76 L-35,76 L-36,79 L-42,79 L-36,71 L-31,64 L-30,61 L-28,61 L-27,57 L-29,55 L-27,52 L-32,53 L-30,48 L-25,42 L-30,45 L-29,38 L-29,36 L-32,34 L-30,34 L-30,30 L-32,30 L-32,32 L-34,32 L-35,35 L-37,35 L-37,30 L-32,26 L-28,25 L-28,22 L-21,18 L-18,14 L-14,14 L-13,11 L-11,11 L-10,8 L-7,5 L-4,1 Z " fill="#888682" transform="translate(238,224)"/>
<path d="M0,0 L3,1 L3,3 L8,3 L9,6 L13,8 L18,14 L15,15 L8,14 L9,23 L13,32 L21,48 L24,54 L26,87 L26,111 L-2,115 L-12,115 L-12,112 L22,107 L25,107 L24,100 L19,99 L20,91 L24,91 L24,88 L19,88 L17,86 L12,87 L-9,86 L-8,68 L-5,36 L-4,23 L-3,21 L-1,1 Z " fill="#869DA9" transform="translate(67,154)"/>
<path d="M0,0 L56,0 L56,1 L34,3 L34,7 L38,6 L60,5 L57,8 L53,9 L41,9 L34,10 L34,13 L43,13 L42,16 L32,16 L32,20 L37,20 L37,23 L39,24 L28,33 L19,43 L8,57 L1,69 L-6,86 L-7,86 L-6,61 L-1,14 Z " fill="#F9FBF9" transform="translate(81,0)"/>
<path d="M0,0 L1,2 L10,2 L10,4 L5,5 L5,8 L-1,10 L-7,10 L-7,18 L-16,17 L-29,14 L-29,19 L-19,21 L-8,24 L-5,31 L-3,28 L0,28 L-1,32 L1,32 L1,27 L3,26 L3,29 L5,30 L5,32 L-5,35 L-7,35 L-7,50 L-16,50 L-17,48 L-33,43 L-33,48 L-24,50 L-19,50 L-19,52 L-7,55 L-6,56 L-6,63 L-16,61 L-17,56 L-23,55 L-23,60 L-14,62 L-6,65 L-6,68 L-15,66 L-32,60 L-32,64 L-27,66 L-17,70 L-7,73 L-6,74 L-6,81 L-16,79 L-23,75 L-24,72 L-38,67 L-41,65 L-40,54 L-31,55 L-30,52 L-36,50 L-38,49 L-36,36 L-33,19 L-31,10 L-28,9 L-25,10 L-25,8 L-29,7 L-29,2 L-19,3 L-18,4 L-8,4 L0,3 Z " fill="#F0F6F3" transform="translate(296,238)"/>
<path d="M0,0 L6,0 L6,8 L4,15 L3,26 L1,26 L0,40 L-1,41 L-2,49 L-4,52 L0,52 L1,55 L4,56 L4,59 L-6,59 L-6,61 L2,60 L2,63 L4,63 L5,68 L4,69 L5,77 L-10,78 L-10,80 L-5,79 L4,79 L4,86 L0,87 L-12,87 L-12,89 L4,88 L4,95 L-14,97 L-15,99 L-11,98 L-1,98 L3,97 L3,104 L-17,106 L-17,108 L3,106 L3,113 L-2,114 L-9,114 L-9,116 L5,115 L5,121 L-2,123 L-9,123 L-9,126 L-3,124 L5,124 L5,130 L-13,134 L-18,134 L-16,132 L-15,127 L-10,126 L-10,124 L-15,123 L-16,118 L-10,117 L-10,115 L-19,115 L-18,113 L-16,113 L-15,111 L-20,112 L-19,104 L-14,83 L-14,78 L-16,78 L-17,80 L-16,72 L-5,24 Z " fill="#77868A" transform="translate(314,0)"/>
<path d="M0,0 L16,0 L15,18 L9,82 L8,96 L11,87 L12,90 L9,101 L5,103 L1,111 L0,115 L-7,115 L-6,113 L-4,91 L-4,81 L-5,81 L-5,57 L-1,14 Z " fill="#ABA896" transform="translate(62,0)"/>
<path d="M0,0 L11,2 L23,6 L29,10 L31,12 L31,20 L30,20 L29,13 L20,10 L18,10 L19,13 L18,18 L16,18 L16,30 L20,31 L21,39 L20,52 L15,52 L18,54 L18,56 L21,57 L18,57 L19,58 L21,58 L23,63 L23,68 L17,67 L17,69 L13,69 L15,71 L15,81 L17,82 L17,84 L6,84 L2,85 L-2,83 L-1,81 L4,82 L5,79 L4,77 L6,77 L7,73 L4,73 L4,76 L2,76 L1,78 L-1,74 L2,65 L-2,64 L-4,59 L-4,51 L-5,49 L-4,47 L-8,46 L-6,42 L-10,40 L-5,36 L-4,29 L1,31 L2,35 L9,34 L11,30 L9,26 L3,25 L-1,23 L-2,20 L7,17 L8,13 L11,14 L14,13 L9,9 L3,6 Z " fill="#907D6F" transform="translate(219,136)"/>
<path d="M0,0 L4,1 L25,1 L25,14 L23,38 L22,41 L20,41 L20,43 L11,42 L11,44 L4,46 L-2,46 L-1,37 L-9,36 L-9,2 Z " fill="#CAD0CB" transform="translate(9,80)"/>
<path d="M0,0 L10,2 L12,4 L7,5 L6,4 L5,7 L7,8 L-2,10 L-3,13 L7,16 L10,20 L8,25 L0,25 L-2,21 L-6,19 L-6,26 L-11,30 L-7,32 L-9,36 L-6,37 L-5,42 L-5,49 L-4,52 L-5,54 L-7,54 L-7,59 L-11,58 L-11,56 L-9,55 L-18,53 L-21,52 L-21,48 L-19,47 L-21,43 L-13,44 L-15,42 L-14,37 L-25,34 L-29,33 L-30,30 L-32,29 L-32,27 L-28,27 L-29,24 L-32,24 L-34,28 L-35,24 L-35,17 L-31,13 L-36,11 L-35,7 L-32,2 L-3,2 L3,4 L3,2 L0,1 Z " fill="#453833" transform="translate(221,146)"/>
<path d="M0,0 L4,1 L8,1 L7,3 L16,4 L18,6 L18,8 L18,11 L10,10 L15,15 L18,15 L19,19 L19,21 L21,26 L24,26 L25,34 L54,34 L54,39 L47,40 L45,42 L42,41 L39,43 L32,43 L36,46 L35,50 L34,53 L30,55 L29,57 L26,57 L24,61 L22,60 L22,54 L23,52 L19,53 L21,53 L20,55 L10,52 L7,50 L5,45 L6,42 L3,43 L2,37 L-2,11 L-1,6 L0,3 Z " fill="#93918C" transform="translate(176,188)"/>
<path d="M0,0 L2,0 L2,53 L-32,53 L-34,51 L-28,52 L-29,45 L-45,40 L-54,35 L-54,31 L-43,34 L-31,38 L-21,36 L-15,33 L-11,33 L-11,31 L-2,27 L1,27 L1,24 L-9,29 L-13,29 L-13,31 L-15,31 L-15,24 L-18,25 L-20,24 L-20,27 L-26,27 L-27,22 L-22,20 L-16,18 L-12,14 L-9,13 L-8,11 L-17,15 L-21,16 L-27,18 L-27,13 L-19,11 L-15,11 L-15,7 L-12,5 L-8,5 L-8,3 Z " fill="#7E9297" transform="translate(318,267)"/>
<path d="M0,0 L2,0 L3,3 L0,4 L0,6 L3,7 L2,12 L0,13 L0,19 L2,20 L1,27 L4,30 L4,35 L-3,35 L-6,33 L-6,36 L-5,38 L-1,36 L-1,38 L1,38 L2,36 L3,43 L1,45 L5,48 L6,45 L8,46 L8,49 L7,52 L8,55 L6,59 L8,64 L13,64 L15,63 L17,64 L17,61 L19,61 L20,66 L22,67 L19,68 L5,67 L3,64 L1,67 L-3,66 L-2,62 L1,61 L-1,56 L-1,51 L-3,51 L-5,47 L-8,46 L-9,51 L-14,50 L-12,52 L-9,54 L-9,56 L-2,56 L-3,60 L-12,57 L-13,55 L-19,56 L-22,55 L-21,50 L-21,47 L-21,45 L-25,45 L-24,41 L-17,43 L-15,44 L-12,41 L-10,42 L-12,40 L-27,40 L-30,37 L-24,37 L-22,27 L-22,23 L-18,22 L-18,20 L-23,18 L-21,12 L-22,7 L-20,9 L-8,4 L-3,5 L-2,1 Z M-14,38 Z " fill="#56453B" transform="translate(165,187)"/>
<path d="M0,0 L14,1 L18,3 L19,0 L25,3 L26,5 L32,7 L37,9 L43,10 L42,16 L36,17 L35,20 L31,21 L26,22 L25,24 L25,22 L14,26 L8,28 L1,29 L-13,33 L-25,37 L-28,38 L-28,36 L-26,36 L-26,34 L-24,34 L-24,32 L-17,29 L-15,29 L-14,27 L-9,28 L-7,24 L-1,22 L-2,18 L-6,16 L-7,19 L-9,18 L-9,16 L-15,18 L-20,18 L-23,14 L-23,10 L-21,10 L-20,7 L-10,2 Z " fill="#4D3A32" transform="translate(126,161)"/>
<path d="M0,0 L3,0 L3,14 L-2,61 L-3,84 L4,67 L8,63 L10,63 L11,59 L14,59 L16,67 L19,72 L18,74 L15,74 L17,76 L16,81 L13,85 L3,85 L3,91 L1,96 L2,100 L0,107 L1,110 L-1,114 L3,115 L12,112 L20,112 L20,110 L31,108 L52,108 L52,109 L35,110 L21,113 L10,115 L2,118 L-7,120 L-20,126 L-24,126 L-24,115 L-16,115 L-15,110 L-12,103 L-8,101 L-7,96 L-9,99 L-8,82 L-4,38 Z " fill="#AB8F73" transform="translate(78,0)"/>
<path d="M0,0 L1,0 L1,7 L-2,21 L-1,17 L0,15 L2,15 L2,17 L20,18 L39,13 L49,10 L49,12 L41,15 L38,15 L38,22 L41,23 L36,25 L36,18 L19,22 L20,25 L28,26 L27,29 L17,32 L4,31 L4,33 L8,33 L8,35 L13,35 L13,36 L7,36 L0,34 L-4,33 L-4,38 L0,39 L0,41 L-5,41 L-10,67 L-13,80 L-7,82 L-5,83 L-6,87 L-15,85 L-14,92 L-16,92 L-16,96 L-6,99 L2,103 L2,106 L-8,105 L-26,98 L-26,101 L-28,101 L-30,97 L-23,96 L-14,53 L-5,10 L-3,2 Z " fill="#929A99" transform="translate(271,207)"/>
<path d="M0,0 L5,2 L5,4 L7,5 L8,3 L10,5 L12,3 L15,5 L23,5 L25,8 L33,7 L36,6 L37,7 L40,6 L42,8 L41,11 L47,9 L48,7 L52,11 L50,13 L45,13 L44,14 L47,14 L48,17 L39,15 L21,10 L12,8 L-28,8 L-34,7 L-36,9 L-41,8 L-45,10 L-51,10 L-47,7 L-61,8 L-63,11 L-72,10 L-75,11 L-85,13 L-95,17 L-97,19 L-98,25 L-98,33 L-100,38 L-100,50 L-103,57 L-104,60 L-99,79 L-99,85 L-102,85 L-111,66 L-116,57 L-118,51 L-118,45 L-117,44 L-108,45 L-103,40 L-102,34 L-101,15 L-89,10 L-82,7 L-57,4 L-14,4 L-13,2 L-13,4 L-7,3 L-5,4 L-4,1 Z M-59,6 Z M13,6 Z M49,10 Z " fill="#44332D" transform="translate(192,123)"/>
<path d="M0,0 L103,0 L104,7 L102,7 L100,13 L99,24 L94,26 L91,26 L91,24 L88,24 L83,19 L64,9 L47,4 L41,3 L22,3 L3,7 L3,6 L-22,7 L-22,3 L-12,1 Z " fill="#C9D8DA" transform="translate(137,0)"/>
<path d="M0,0 L5,0 L3,4 L5,10 L2,11 L2,14 L2,19 L2,22 L2,24 L0,25 L4,29 L4,31 L6,31 L5,39 L2,40 L6,40 L8,46 L7,53 L9,53 L8,60 L10,60 L10,62 L13,63 L14,66 L21,70 L21,72 L23,74 L26,75 L25,79 L21,77 L20,76 L19,78 L16,73 L13,72 L10,78 L4,77 L3,73 L1,72 L3,66 L3,63 L2,60 L-1,61 L-5,57 L-2,54 L-3,51 L-7,51 L-12,50 L-10,46 L-6,46 L-5,48 L-2,47 L0,48 L-2,42 L-4,38 L-3,33 L-5,26 L-2,23 L-2,20 L-4,19 L-4,17 L-2,15 L-3,10 L-9,8 L-12,11 L-14,11 L-14,13 L-24,17 L-35,20 L-40,20 L-38,22 L-38,25 L-44,26 L-45,28 L-45,25 L-43,25 L-46,22 L-48,21 L-49,24 L-53,27 L-58,26 L-59,20 L-57,20 L-56,18 L-53,18 L-41,15 L-39,14 L-32,13 L-23,10 L-15,8 L-11,6 L-8,6 L-7,4 L-1,3 Z " fill="#625147" transform="translate(169,174)"/>
<path d="M0,0 L3,1 L3,9 L12,19 L19,30 L21,32 L23,37 L28,48 L29,55 L42,55 L41,64 L40,65 L39,73 L38,74 L37,90 L40,91 L38,92 L25,88 L23,71 L19,62 L17,59 L15,39 L12,33 L10,27 L3,16 L0,11 L-2,6 L-6,5 L-7,1 L-2,3 L0,5 Z " fill="#D4D4CE" transform="translate(233,27)"/>
<path d="M0,0 L12,0 L13,5 L13,21 L1,27 L1,29 L-17,28 L-22,27 L-22,26 L-10,26 L-11,24 L-24,25 L-24,26 L-30,26 L-30,16 L-29,9 L-25,8 L-17,8 L-17,3 Z " fill="#9FA8AF" transform="translate(82,272)"/>
<path d="M0,0 L2,1 L-1,3 L2,3 L5,6 L6,9 L8,9 L9,13 L14,12 L14,14 L17,15 L14,16 L1,16 L7,25 L11,33 L14,34 L17,31 L20,32 L20,30 L16,28 L16,26 L27,25 L31,27 L32,31 L28,31 L24,34 L24,39 L29,40 L32,44 L32,46 L36,47 L37,45 L37,43 L40,40 L42,38 L44,39 L45,37 L50,39 L49,42 L51,44 L47,52 L45,55 L48,56 L47,58 L44,56 L44,62 L42,62 L41,60 L36,61 L28,54 L14,40 L7,32 L4,29 L6,38 L5,42 L5,40 L1,39 L2,35 L-5,30 L-7,22 L-6,13 L-3,11 L-2,6 L-7,5 L-3,1 Z M48,43 Z M30,46 Z M27,24 Z M32,41 Z " fill="#44372F" transform="translate(102,208)"/>
<path d="M0,0 L1,0 L8,43 L13,77 L13,81 L15,81 L12,54 L9,33 L9,24 L11,22 L21,23 L20,41 L18,66 L16,82 L0,81 Z " fill="#829092" transform="translate(0,213)"/>
<path d="M0,0 L1,2 L-1,6 L8,8 L8,15 L2,13 L-1,12 L-1,14 L2,15 L2,17 L5,18 L9,25 L9,31 L5,32 L4,29 L3,38 L-38,38 L-32,31 L-27,27 L-23,22 L-17,18 L-9,13 L-2,3 Z " fill="#A38D7E" transform="translate(224,282)"/>
<path d="M0,0 L3,0 L3,32 L-6,36 L-13,39 L-16,39 L-15,33 L-14,31 L-22,34 L-24,34 L-25,36 L-28,36 L-28,29 L-16,27 L-16,24 L-11,23 L-11,21 L-20,21 L-23,23 L-33,24 L-38,23 L-38,21 L-42,21 L-42,19 L-29,19 L-19,16 L-18,14 L-26,14 L-28,10 L-23,8 L-12,5 L-9,6 L-10,13 L-6,11 L-8,10 L-8,3 Z " fill="#6B7D82" transform="translate(317,219)"/>
<path d="M0,0 L3,4 L5,20 L8,29 L13,32 L13,35 L13,40 L17,45 L17,70 L12,77 L5,83 L4,83 L3,62 L-2,62 L1,61 L1,57 L-21,60 L-36,60 L-36,59 L-5,55 L2,55 L0,12 Z " fill="#6A9997" transform="translate(91,210)"/>
<path d="M0,0 L1,0 L1,22 L-3,58 L-6,92 L-14,173 L-15,180 L-15,191 L-5,191 L8,193 L8,195 L6,196 L-6,196 L-20,195 L-20,183 L-13,114 L-6,44 L-2,2 Z " fill="#202122" transform="translate(50,121)"/>
<path d="M0,0 L1,0 L1,5 L22,5 L27,4 L29,6 L34,7 L34,10 L30,10 L29,18 L34,18 L35,19 L35,26 L19,29 L3,31 L-2,31 Z " fill="#596B69" transform="translate(57,235)"/>
<path d="M0,0 L3,1 L3,3 L8,3 L9,6 L13,8 L18,14 L15,15 L8,14 L9,23 L13,32 L21,48 L22,53 L14,52 L3,50 L0,47 L-4,46 L-4,23 L-3,21 L-1,1 Z " fill="#AFB3AB" transform="translate(67,154)"/>
<path d="M0,0 L5,2 L5,4 L7,4 L9,7 L8,18 L3,23 L-1,25 L-4,28 L-7,32 L-7,44 L2,45 L2,47 L4,47 L2,59 L-5,69 L-7,71 L-6,58 L-9,76 L-13,78 L-13,71 L-10,59 L-12,49 L-12,25 L-17,21 L-27,17 L-24,16 L-22,16 L-22,14 L-25,14 L-24,12 L-19,12 L-17,8 L-9,10 L-7,9 L-7,11 L-5,11 L-2,18 L2,18 L4,16 L3,14 L3,4 Z " fill="#544A41" transform="translate(261,123)"/>
<path d="M0,0 L46,0 L69,3 L95,7 L111,10 L118,13 L124,17 L127,22 L129,26 L128,37 L126,39 L126,33 L110,41 L108,43 L105,43 L105,41 L103,40 L106,37 L110,35 L112,33 L112,27 L113,22 L112,19 L110,19 L107,16 L61,6 L47,4 L44,2 L-1,2 Z " fill="#8B7D70" transform="translate(156,108)"/>
<path d="M0,0 L1,0 L1,133 L-7,134 L-7,132 L-1,130 L0,124 L-11,127 L-23,129 L-28,129 L-28,126 L-13,124 L-4,122 L0,122 L0,116 L-14,118 L-14,115 L0,113 L0,107 L-6,108 L-14,108 L-14,106 L-2,105 L-2,98 L-5,99 L-22,100 L-22,98 L-8,96 L-2,96 L-2,89 L-5,89 L-6,91 L-20,91 L-19,88 L-1,87 L-1,80 L-17,81 L-17,79 L-1,78 L-2,72 L-15,72 L-15,70 L-12,69 L0,69 L-2,60 L0,60 L-1,55 L-3,55 L-4,53 L-11,53 L-11,51 L-1,51 L-2,48 L-5,48 L-5,44 L-9,44 L-7,33 L-6,32 L-4,18 L-2,18 L-2,7 Z " fill="#A8B8BC" transform="translate(319,8)"/>
<path d="M0,0 L9,3 L10,4 L11,27 L13,31 L12,42 L8,60 L8,65 L9,67 L7,71 L4,70 L4,60 L1,52 L1,49 L-1,52 L-3,45 L-8,43 L-4,42 L0,43 L0,22 L-4,21 L-4,12 L-6,11 L-4,11 L-3,4 L-2,1 Z " fill="#C6AD99" transform="translate(239,145)"/>
<path d="M0,0 L4,0 L4,2 L9,2 L7,4 L4,5 L3,7 L10,6 L7,15 L3,24 L9,13 L14,8 L17,6 L20,7 L18,10 L20,12 L18,16 L16,18 L13,23 L6,33 L10,33 L11,31 L16,30 L11,35 L6,40 L-4,49 L-6,51 L-13,51 L-10,44 L-15,41 L-19,40 L-19,38 L-23,36 L-18,32 L-13,33 L-14,36 L-9,37 L-7,32 L-1,31 L-3,26 L-4,21 L-5,19 L-2,17 L1,16 L3,12 L1,11 L1,9 L-4,7 L-2,5 L2,6 L1,2 L-1,1 Z M-13,41 Z " fill="#6F665F" transform="translate(192,269)"/>
<path d="M0,0 L7,1 L17,4 L30,8 L30,11 L21,11 L20,9 L4,4 L4,9 L13,11 L18,11 L18,13 L30,16 L31,17 L31,24 L21,22 L20,17 L14,16 L14,21 L23,23 L31,26 L31,29 L22,27 L5,21 L5,25 L10,27 L20,31 L30,34 L31,35 L31,42 L21,40 L14,36 L13,33 L-1,28 L-4,26 L-3,15 L6,16 L7,13 L1,11 L-1,10 Z " fill="#E2EFEC" transform="translate(259,277)"/>
<path d="M0,0 L5,2 L13,5 L21,9 L21,13 L21,15 L23,15 L23,12 L33,15 L41,18 L52,20 L64,26 L64,27 L5,27 L5,17 L7,18 L7,21 L9,21 L10,14 L6,7 L1,3 Z " fill="#393A40" transform="translate(222,293)"/>
<path d="M0,0 L4,1 L4,3 L1,3 L1,10 L10,9 L11,6 L21,6 L22,3 L22,5 L24,5 L24,26 L15,28 L8,30 L5,31 L4,36 L9,36 L9,38 L4,39 L4,44 L2,45 L-10,45 L-11,43 L-16,42 L-16,38 L-9,39 L-8,41 L-3,40 L-7,39 L-7,37 L-10,37 L-10,33 L-14,33 L-13,24 L-11,19 L5,18 L5,21 L-8,23 L-8,26 L3,25 L4,26 L13,25 L22,23 L22,17 L11,20 L6,20 L6,18 L22,14 L22,8 L12,11 L1,13 L-6,13 L-6,11 L0,10 L-1,4 L-7,5 L-7,1 L-1,1 Z " fill="#A6B8BD" transform="translate(296,142)"/>
<path d="M0,0 L36,0 L36,1 L14,3 L14,7 L18,6 L40,5 L37,8 L33,9 L21,9 L14,10 L14,13 L23,13 L22,16 L12,16 L12,20 L17,20 L17,23 L19,24 L8,33 L-1,43 L-5,47 L-10,46 L-10,43 L-2,42 L-2,39 L1,39 L2,30 L8,29 L1,28 L0,23 Z " fill="#DAE7DC" transform="translate(101,0)"/>
<path d="M0,0 L2,0 L2,7 L-4,9 L-3,10 L2,10 L2,16 L1,18 L3,18 L3,24 L-1,25 L-1,19 L0,17 L-13,21 L-14,23 L-6,20 L-3,20 L-3,26 L-10,29 L-21,32 L-22,33 L-28,33 L-28,30 L-30,30 L-30,28 L-17,26 L-17,24 L-15,24 L-15,22 L-28,24 L-29,20 L-17,18 L-17,16 L-24,18 L-29,18 L-30,14 L-34,13 L-34,11 L-17,10 L-16,6 L-7,3 Z " fill="#687C83" transform="translate(317,184)"/>
<path d="M0,0 L2,0 L2,32 L-12,39 L-15,39 L-15,33 L-11,33 L-11,31 L-2,27 L1,27 L1,24 L-9,29 L-13,29 L-13,31 L-15,31 L-15,24 L-18,25 L-20,24 L-20,27 L-26,27 L-27,22 L-22,20 L-16,18 L-12,14 L-9,13 L-8,11 L-17,15 L-21,16 L-27,18 L-27,13 L-19,11 L-15,11 L-15,7 L-12,5 L-8,5 L-8,3 Z " fill="#63787D" transform="translate(318,267)"/>
<path d="M0,0 L19,0 L19,3 L22,3 L22,5 L19,6 L5,6 L5,8 L9,9 L10,13 L22,11 L22,13 L14,15 L10,15 L11,18 L24,17 L24,19 L22,19 L22,21 L14,23 L9,23 L9,25 L11,25 L11,28 L18,26 L35,21 L36,15 L25,18 L26,15 L37,12 L39,12 L38,20 L42,19 L42,22 L36,25 L26,27 L21,30 L17,31 L4,31 L-6,29 L-6,26 L-4,26 L-4,18 L1,17 L5,18 L7,14 L-2,12 L-1,8 L2,8 L2,5 L0,5 Z " fill="#BDCBCD" transform="translate(278,189)"/>
<path d="M0,0 L4,1 L8,1 L7,3 L16,4 L18,6 L18,8 L18,11 L10,10 L15,15 L18,15 L19,19 L19,21 L21,26 L24,26 L25,34 L16,35 L16,36 L6,36 L5,32 L2,31 L0,24 L-2,8 L0,3 Z " fill="#A0A09B" transform="translate(176,188)"/>
<path d="M0,0 L10,2 L12,4 L7,5 L6,4 L5,7 L7,8 L-2,10 L-3,13 L7,16 L10,20 L8,25 L0,25 L-2,21 L-4,19 L0,20 L3,22 L-1,17 L-1,15 L-22,15 L-31,19 L-32,26 L-35,28 L-35,17 L-31,13 L-36,11 L-35,7 L-32,2 L-3,2 L3,4 L3,2 L0,1 Z " fill="#5B3C31" transform="translate(221,146)"/>
<path d="M0,0 L15,0 L15,6 L20,5 L28,5 L28,20 L27,23 L25,23 L25,25 L16,24 L16,26 L9,28 L3,28 L3,17 L6,17 L6,14 L1,15 L1,10 L-1,10 L0,7 L2,7 L0,3 Z " fill="#EEEFE6" transform="translate(4,98)"/>
<path d="M0,0 L11,2 L23,6 L29,10 L31,12 L31,20 L30,20 L29,13 L20,10 L18,10 L19,13 L18,18 L16,18 L17,32 L18,38 L16,40 L10,39 L7,38 L7,36 L3,36 L2,39 L0,39 L0,41 L-2,42 L-2,49 L1,53 L-4,54 L-5,49 L-4,47 L-8,46 L-6,42 L-10,40 L-5,36 L-4,29 L1,31 L2,35 L9,34 L11,30 L9,26 L3,25 L-1,23 L-2,20 L7,17 L8,13 L11,14 L14,13 L9,9 L3,6 Z " fill="#896B59" transform="translate(219,136)"/>
<path d="M0,0 L7,3 L8,5 L14,7 L16,12 L0,20 L-7,23 L-7,20 L-4,20 L-3,17 L-7,15 L-1,12 L0,10 L-2,10 L-4,8 L-6,7 L-8,13 L-11,17 L-18,17 L-22,13 L-23,8 L-29,9 L-34,15 L-36,14 L-36,9 L-30,4 L-25,3 L-11,2 L-10,1 L-4,1 L0,3 Z " fill="#342925" transform="translate(144,161)"/>
<path d="M0,0 L4,0 L8,1 L13,6 L19,11 L19,13 L23,14 L26,16 L25,21 L27,21 L26,24 L25,22 L23,23 L23,27 L30,26 L24,33 L23,35 L18,34 L13,28 L11,27 L8,21 L-1,9 L-6,3 L-5,1 L-1,1 Z M2,2 Z " fill="#42352E" transform="translate(121,261)"/>
<path d="M0,0 L6,0 L6,2 L4,3 L2,8 L8,6 L20,6 L20,18 L18,18 L17,25 L17,28 L13,27 L14,30 L8,28 L6,23 L-4,23 L-7,22 L-7,8 L1,7 Z " fill="#E4E2CB" transform="translate(7,156)"/>
<path d="M0,0 L2,4 L3,7 L0,7 L0,10 L25,5 L28,5 L28,11 L24,13 L21,13 L21,15 L29,14 L29,20 L24,22 L16,22 L15,24 L6,25 L6,18 L9,18 L8,16 L2,17 L-2,16 L-2,20 L4,19 L5,25 L-1,27 L-5,27 L-6,22 L-2,4 Z " fill="#7A8C8D" transform="translate(291,127)"/>
<path d="M0,0 L6,0 L13,2 L26,6 L27,4 L28,5 L30,2 L33,2 L32,6 L34,6 L34,1 L36,0 L36,3 L38,4 L38,6 L28,9 L26,9 L26,21 L19,20 L3,15 L-3,13 L-1,1 Z " fill="#CFE5E0" transform="translate(263,264)"/>
<path d="M0,0 L1,0 L1,15 L-1,35 L-1,43 L1,33 L2,33 L2,43 L0,62 L-1,78 L-2,78 L-3,70 L-4,71 L-8,113 L-18,214 L-20,229 L-21,229 L-21,218 L-11,118 L-9,98 L-5,54 L-4,36 Z " fill="#424444" transform="translate(53,52)"/>
<path d="M0,0 L2,0 L4,9 L10,25 L10,28 L-12,28 L-18,25 L-14,23 L-15,21 L-17,22 L-19,20 L-17,15 L-17,13 L-19,12 L-16,9 L-16,7 L-18,6 L-11,5 L-7,7 L-8,10 L-6,10 L-4,15 L-7,15 L-7,17 L-3,18 L-3,24 L-2,20 L4,18 L4,21 L6,21 L3,16 L0,16 L-2,18 L-4,12 L-4,4 L0,5 Z " fill="#231F1E" transform="translate(99,292)"/>
<path d="M0,0 L1,4 L2,17 L5,32 L5,38 L7,38 L7,28 L9,29 L8,31 L16,32 L17,33 L17,42 L10,42 L7,41 L9,57 L12,78 L14,93 L14,105 L12,105 L7,75 L2,41 L-1,24 L-1,3 Z " fill="#D1DADE" transform="translate(1,189)"/>
<path d="M0,0 L1,0 L3,32 L3,56 L-25,60 L-35,60 L-35,57 L-1,52 L2,52 L1,45 L-4,44 L-3,36 L1,36 L1,33 L-4,33 L-6,31 L-11,32 L-32,31 L-32,26 L1,26 L1,23 L-3,22 L-1,21 Z " fill="#B5C7C7" transform="translate(90,209)"/>
<path d="M0,0 L3,0 L3,7 L-2,8 L-9,8 L-9,10 L5,9 L5,15 L-2,17 L-9,17 L-9,20 L-3,18 L5,18 L5,24 L-13,28 L-18,28 L-16,26 L-15,21 L-10,20 L-10,18 L-15,17 L-16,12 L-10,11 L-10,9 L-19,9 L-18,7 L-16,7 L-15,5 L-18,5 L-18,2 Z " fill="#697E84" transform="translate(314,106)"/>
<path d="M0,0 L14,0 L13,11 L12,12 L3,13 L-9,13 L-13,12 L-22,13 L-22,1 Z " fill="#E7F0F3" transform="translate(22,69)"/>
<path d="M0,0 L6,0 L6,3 L11,2 L11,0 L15,1 L24,5 L23,10 L17,7 L18,10 L15,12 L17,19 L16,24 L18,22 L18,19 L24,20 L23,23 L26,24 L23,29 L21,29 L20,31 L17,32 L14,35 L12,33 L12,30 L10,29 L12,25 L4,22 L2,21 L3,16 L5,15 L5,12 L7,10 L1,9 L4,2 L1,3 Z " fill="#51433C" transform="translate(170,257)"/>
<path d="M0,0 L5,0 L5,14 L1,57 L-1,83 L-4,95 L-6,96 L-5,75 L-4,67 L-4,42 L-1,14 Z " fill="#323233" transform="translate(57,0)"/>
<path d="M0,0 L26,0 L26,1 L70,1 L73,4 L19,4 L-23,7 L-35,9 L-44,12 L-52,14 L-58,14 L-55,11 L-39,5 L-28,3 L-17,1 Z " fill="#7A5F49" transform="translate(130,108)"/>
<path d="M0,0 Z M11,0 L21,0 L30,3 L30,5 L32,5 L34,9 L27,11 L24,12 L17,12 L11,11 L-4,13 L-7,14 L-13,12 L-10,9 L-9,5 L-1,1 L4,2 L5,4 L9,5 L9,2 L11,2 Z " fill="#432D27" transform="translate(110,147)"/>
<path d="M0,0 L3,0 L1,8 L20,1 L20,9 L15,11 L3,16 L1,16 L1,13 L10,10 L6,10 L-4,13 L-11,15 L-12,13 L-23,10 L-33,7 L-33,2 L-24,3 L-17,5 L-8,5 L-7,2 L-3,1 Z " fill="#A5B8B8" transform="translate(300,250)"/>
<path d="M0,0 L1,2 L3,3 L2,4 L6,6 L3,8 L0,14 L-5,20 L-6,23 L-8,23 L-9,26 L-13,27 L-14,33 L-19,37 L-20,34 L-18,29 L-22,26 L-20,26 L-20,22 L-22,22 L-22,24 L-24,24 L-25,27 L-27,27 L-27,22 L-22,18 L-18,17 L-18,14 L-11,10 L-8,6 L-4,6 L-3,3 L-1,3 Z " fill="#75746F" transform="translate(228,232)"/>
<path d="M0,0 L10,1 L12,4 L14,3 L16,8 L16,13 L10,12 L10,14 L6,14 L8,16 L8,26 L10,27 L10,29 L-1,29 L-5,30 L-9,28 L-8,26 L-3,27 L-2,24 L-3,22 L-1,22 L0,18 L-3,18 L-3,21 L-5,21 L-6,23 L-8,19 L-5,10 L-9,9 L-8,7 L-2,9 L-1,11 L2,9 L0,7 L-1,3 Z " fill="#878682" transform="translate(226,191)"/>
<path d="M0,0 L3,1 L4,4 L2,8 L4,9 L6,7 L6,11 L4,12 L6,14 L8,12 L8,16 L-50,16 L-50,14 L-46,12 L-21,12 L-21,10 L-14,7 Z " fill="#393432" transform="translate(79,304)"/>
<path d="M0,0 L5,0 L3,4 L5,10 L2,11 L3,13 L-2,12 L-4,10 L-9,8 L-12,11 L-14,11 L-14,13 L-24,17 L-35,20 L-40,20 L-38,22 L-38,25 L-44,26 L-45,28 L-45,25 L-43,25 L-46,22 L-48,21 L-49,24 L-53,27 L-58,26 L-59,20 L-57,20 L-56,18 L-53,18 L-41,15 L-39,14 L-32,13 L-23,10 L-15,8 L-11,6 L-8,6 L-7,4 L-1,3 Z " fill="#5E4E43" transform="translate(169,174)"/>
<path d="M0,0 L4,1 L4,26 L-1,29 L-9,22 L-15,14 L-15,6 L-13,4 L-8,5 L-7,7 L-5,2 Z " fill="#191B1D" transform="translate(85,138)"/>
<path d="M0,0 L8,1 L7,10 L16,8 L20,8 L20,6 L26,6 L27,4 L27,7 L29,7 L29,5 L31,5 L31,18 L26,19 L26,23 L17,23 L18,20 L25,21 L25,19 L17,19 L19,12 L17,12 L15,15 L15,13 L13,13 L12,15 L7,14 L7,19 L0,20 Z " fill="#CCCFB6" transform="translate(0,116)"/>
<path d="M0,0 L1,2 L-7,5 L-10,5 L-10,12 L-7,13 L-12,15 L-12,8 L-29,12 L-28,15 L-20,16 L-21,19 L-28,21 L-37,21 L-50,18 L-49,7 L-48,5 L-46,5 L-46,7 L-28,8 L-9,3 Z " fill="#C5D5D6" transform="translate(319,217)"/>
<path d="M0,0 L1,0 L1,7 L-4,9 L-12,11 L-16,11 L-16,13 L-4,10 L0,10 L1,16 L-6,18 L-12,20 L-18,20 L-23,19 L-30,19 L-30,16 L-21,14 L-17,14 L-17,11 L-32,11 L-33,8 L-26,6 L-7,2 Z " fill="#62767E" transform="translate(318,149)"/>
<path d="M0,0 L10,1 L9,19 L7,44 L5,51 L3,47 L-1,21 L-2,11 L-2,2 Z " fill="#5A6866" transform="translate(11,235)"/>
<path d="M0,0 L13,1 L14,2 L14,27 L9,34 L2,40 L1,40 L0,24 L0,12 L3,12 L3,14 L13,16 L13,12 L1,10 L1,7 L13,9 L12,5 L0,3 Z " fill="#527C80" transform="translate(94,253)"/>
<path d="M0,0 L1,0 L2,5 L4,4 L1,40 L-1,59 L-3,78 L-3,86 L2,91 L4,92 L5,90 L5,96 L1,97 L0,95 L-5,94 L-6,92 L-5,89 L-7,89 L-7,73 L-1,13 Z " fill="#747674" transform="translate(44,200)"/>
<path d="M0,0 L4,1 L25,1 L24,12 L17,13 L15,14 L13,13 L4,13 L1,12 L-3,13 L-3,11 L-9,10 L-9,2 Z " fill="#C1D3D8" transform="translate(9,80)"/>
<path d="M0,0 L4,1 L4,6 L8,7 L12,6 L13,10 L10,11 L13,11 L16,10 L20,11 L23,11 L27,10 L28,14 L26,19 L30,21 L29,23 L27,26 L24,26 L22,30 L20,29 L20,23 L21,21 L17,22 L19,22 L18,24 L8,21 L5,19 L3,14 L4,11 L1,12 Z " fill="#87847E" transform="translate(178,219)"/>
<path d="M0,0 L2,4 L1,11 L-1,16 L-2,19 L3,38 L3,44 L0,44 L-9,25 L-14,16 L-16,10 L-16,4 L-13,3 L-11,6 L-3,8 L-3,11 L-1,11 Z " fill="#5B342E" transform="translate(90,164)"/>
<path d="M0,0 L7,6 L8,9 L11,10 L18,18 L28,28 L25,28 L20,25 L19,27 L16,26 L12,28 L14,31 L16,37 L14,37 L7,27 L7,25 L3,26 L2,19 L-2,14 L-2,11 L2,12 Z M18,27 Z " fill="#51443D" transform="translate(105,236)"/>
<path d="M0,0 L1,0 L1,10 L6,11 L8,13 L19,15 L18,19 L26,19 L27,23 L27,36 L23,37 L23,31 L18,32 L19,29 L15,29 L14,25 L15,23 L12,22 L-1,22 Z " fill="#7B8888" transform="translate(62,190)"/>
<path d="M0,0 L46,0 L69,3 L95,7 L107,9 L107,12 L105,14 L103,15 L61,6 L47,4 L44,2 L-1,2 Z " fill="#8B725C" transform="translate(156,108)"/>
<path d="M0,0 L1,0 L1,82 L0,82 L-1,66 L-2,60 L0,60 L-1,55 L-3,55 L-4,53 L-11,53 L-11,51 L-1,51 L-2,48 L-5,48 L-5,44 L-9,44 L-7,33 L-6,32 L-4,18 L-2,18 L-2,7 Z " fill="#C3D3D5" transform="translate(319,8)"/>
<path d="M0,0 L5,1 L2,10 L3,13 L6,11 L6,8 L10,9 L9,12 L7,14 L9,16 L7,16 L6,19 L1,18 L2,20 L7,20 L9,19 L19,20 L19,21 L14,22 L-18,23 L-16,22 L-17,14 L-20,14 L-21,10 L-16,13 L-13,19 L-11,15 L-10,12 L-8,11 L-9,8 L-8,7 L-3,7 L-4,11 L-2,10 L-2,1 Z " fill="#7C7B76" transform="translate(217,200)"/>
<path d="M0,0 L3,1 L3,3 L8,3 L9,6 L13,8 L18,14 L15,15 L8,14 L8,25 L7,29 L7,31 L5,31 L4,28 L0,26 L-1,33 L-3,33 L-3,21 L-1,1 Z " fill="#C9CBBD" transform="translate(67,154)"/>
<path d="M0,0 L3,0 L3,14 L-2,61 L-4,84 L-8,99 L-9,99 L-8,82 L-4,38 Z " fill="#7D7D76" transform="translate(78,0)"/>
<path d="M0,0 L43,0 L44,2 L43,7 L39,7 L39,3 L35,3 L34,7 L32,8 L17,9 L7,8 L0,5 Z " fill="#91B6C4" transform="translate(195,0)"/>
<path d="M0,0 L5,0 L2,17 L-3,39 L-4,47 L-7,55 L-10,68 L-13,70 L-12,54 L-3,15 Z " fill="#AAAEAA" transform="translate(314,0)"/>
<path d="M0,0 L5,0 L2,39 L-1,70 L-2,76 L-3,76 L-4,69 L-5,69 L-5,57 L-1,14 Z " fill="#979587" transform="translate(62,0)"/>
<path d="M0,0 L3,1 L0,8 L4,7 L8,8 L8,10 L1,10 L0,12 L9,12 L9,8 L13,7 L13,21 L12,21 L12,14 L9,15 L1,15 L1,17 L-11,17 L-11,19 L-14,19 L-14,16 L-17,16 L-17,9 L-10,8 L-10,3 L-7,2 L-4,2 Z " fill="#B4B5A2" transform="translate(17,127)"/>
<path d="M0,0 L51,0 L52,3 L57,5 L54,6 L41,3 L22,3 L3,7 L3,6 L-22,7 L-22,3 L-12,1 Z " fill="#AEC5C0" transform="translate(137,0)"/>
<path d="M0,0 L4,0 L4,6 L3,9 L5,9 L4,16 L6,16 L6,18 L9,19 L10,22 L17,26 L17,28 L19,30 L22,31 L21,35 L17,33 L16,32 L15,34 L12,29 L9,28 L6,34 L0,33 L-1,29 L-3,28 L-1,22 L-1,19 L-2,16 L-2,14 L-1,11 L-1,13 L1,13 L0,6 L-2,4 L0,4 L-1,1 Z M-3,14 Z M-4,15 Z " fill="#64584F" transform="translate(173,218)"/>
<path d="M0,0 L1,0 L1,6 L3,6 L3,4 L8,3 L14,3 L14,5 L16,5 L14,17 L7,27 L5,29 L6,16 L3,34 L-1,36 L-1,29 L2,17 L0,7 Z " fill="#A06456" transform="translate(249,165)"/>
<path d="M0,0 L6,2 L5,5 L7,7 L3,15 L1,18 L4,19 L3,21 L0,19 L0,25 L-2,25 L-3,23 L-8,24 L-16,17 L-17,15 L-10,16 L-11,11 L-7,8 L-7,6 L-4,3 L-2,1 L0,2 Z M4,6 Z " fill="#3B2F28" transform="translate(146,245)"/>
<path d="M0,0 L5,2 L13,5 L21,9 L18,11 L16,11 L17,14 L20,17 L23,22 L21,27 L5,27 L5,17 L7,18 L7,21 L9,21 L10,14 L6,7 L1,3 Z " fill="#50515C" transform="translate(222,293)"/>
<path d="M0,0 L1,2 L10,2 L10,4 L5,5 L5,8 L-1,10 L-7,10 L-7,16 L-17,14 L-17,12 L-22,12 L-22,10 L-27,8 L-29,7 L-29,2 L-19,3 L-18,4 L-8,4 L0,3 Z " fill="#C5D9D8" transform="translate(296,238)"/>
<path d="M0,0 L5,1 L11,3 L11,6 L7,6 L6,14 L11,14 L12,15 L12,22 L0,24 L-2,23 L-2,21 L1,21 L2,17 L4,14 L-4,15 L-3,12 L-1,12 L-1,8 L1,8 L1,10 L3,10 L4,5 L-1,5 L-4,5 L-12,7 L-14,6 L-14,4 L-22,5 L-22,1 L-1,1 Z " fill="#727B79" transform="translate(80,239)"/>
<path d="M0,0 L9,0 L10,9 L7,9 L7,11 L9,12 L7,12 L8,18 L16,18 L16,23 L19,22 L20,20 L27,20 L27,23 L25,23 L25,25 L16,24 L16,26 L9,28 L3,28 L3,17 L6,17 L6,14 L1,15 L1,10 L-1,10 L0,7 L2,7 L0,3 Z " fill="#E1E5DD" transform="translate(4,98)"/>
<path d="M0,0 L25,0 L25,2 L23,2 L23,5 L17,5 L17,7 L24,7 L27,10 L23,11 L16,11 L17,13 L21,15 L20,17 L16,17 L13,20 L8,15 L2,3 Z " fill="#58483E" transform="translate(102,223)"/>
</svg>
